<svg width="984" height="503" viewBox="0 0 984 503" fill="none" xmlns="http://www.w3.org/2000/svg">
<g clip-path="url(#clip0_190_139)">
<g filter="url(#filter0_d_190_139)">
<path d="M754.074 196.12L819.488 205.421L823.145 214.461L792.231 255.134L777.448 248.445L794.828 218.194L753.613 225.718L754.074 196.12Z" fill="url(#paint0_linear_190_139)"/>
</g>
<path d="M680.563 442.479L669.112 460.483L675.782 437.045C661.698 422.35 642.202 411.6 642.202 411.6C642.202 411.6 618.194 451.056 624.656 475.327C631.117 499.598 647.802 504.231 665.601 499.492C683.399 494.754 695.572 482.438 689.11 458.167C687.672 452.765 684.548 447.462 680.563 442.479Z" fill="#F2F2F2"/>
<path d="M665.412 462.278L665.73 463.474C669.361 477.399 669.905 488.874 667.337 497.739C667.302 497.869 667.259 497.994 667.224 498.124L666.625 497.947L666.051 497.77C668.96 488.161 667.662 476.019 664.498 463.872C664.4 463.48 664.3 463.081 664.188 462.686C662.804 457.556 661.107 452.446 659.26 447.534C659.121 447.152 658.974 446.766 658.826 446.381C656.355 439.91 653.655 433.817 651.154 428.566C650.978 428.194 650.797 427.823 650.618 427.459C646.347 418.588 642.727 412.302 641.913 410.914C641.817 410.743 641.761 410.651 641.748 410.628L642.268 410.319L642.273 410.311L642.799 410C642.811 410.022 643.002 410.333 643.334 410.917C644.593 413.093 647.934 419.021 651.787 426.989C651.959 427.349 652.14 427.72 652.315 428.092C654.349 432.351 656.507 437.142 658.558 442.228C659.076 443.505 659.571 444.768 660.043 446.019C660.196 446.403 660.343 446.789 660.483 447.17C662.48 452.48 664.123 457.516 665.412 462.278Z" fill="white"/>
<path d="M651.787 426.989C651.404 427.148 651.015 427.309 650.618 427.459C649.539 427.869 648.439 428.223 647.323 428.52C642.57 429.792 637.593 429.982 632.757 429.075C632.592 429.455 632.427 429.835 632.257 430.222C637.357 431.224 642.618 431.047 647.639 429.705C648.829 429.387 650.003 429.007 651.154 428.566C651.545 428.417 651.934 428.257 652.315 428.092C655.465 426.75 658.393 424.938 661 422.716C660.658 422.458 660.324 422.205 659.998 421.956C657.524 424.029 654.757 425.725 651.787 426.989Z" fill="white"/>
<path d="M660.043 446.019C659.641 446.151 659.235 446.272 658.826 446.381C658.704 446.42 658.573 446.454 658.449 446.487C653.297 447.859 647.89 447.965 642.689 446.795C637.487 445.625 632.646 443.215 628.577 439.771C628.433 440.183 628.289 440.595 628.153 441.012C632.36 444.474 637.33 446.884 642.654 448.042C647.977 449.2 653.5 449.073 658.764 447.672C658.93 447.628 659.096 447.584 659.26 447.534C659.673 447.417 660.079 447.297 660.483 447.17C666.72 445.163 672.247 441.401 676.403 436.336C676.12 436.037 675.838 435.738 675.549 435.44C671.52 440.4 666.131 444.077 660.043 446.019Z" fill="white"/>
<path d="M665.412 462.278C665.007 462.424 664.598 462.558 664.188 462.686C663.749 462.822 663.308 462.952 662.864 463.07C655.939 464.905 648.606 464.448 641.963 461.767C635.32 459.085 629.724 454.325 626.013 448.197C625.874 448.747 625.734 449.292 625.607 449.84C629.56 455.887 635.318 460.534 642.063 463.122C648.807 465.709 656.196 466.106 663.179 464.255C663.623 464.137 664.066 464.012 664.498 463.872C664.915 463.748 665.324 463.614 665.73 463.474C673.93 460.59 680.727 454.697 684.745 446.99C684.504 446.584 684.246 446.19 683.987 445.79C680.175 453.492 673.512 459.406 665.412 462.278Z" fill="white"/>
<path d="M621.563 32.4794L610.112 50.4831L616.782 27.0455C602.698 12.3502 583.202 1.6001 583.202 1.6001C583.202 1.6001 559.194 41.0561 565.656 65.3269C572.117 89.5977 588.802 94.2308 606.601 89.4924C624.399 84.7539 636.572 72.4383 630.11 48.1675C628.672 42.7653 625.548 37.4618 621.563 32.4794Z" fill="#F2F2F2"/>
<path d="M606.412 52.278L606.73 53.4743C610.361 67.3993 610.905 78.8736 608.337 87.7387C608.302 87.8686 608.259 87.9941 608.224 88.124L607.625 87.9473L607.051 87.7702C609.96 78.161 608.662 66.0187 605.498 53.8721C605.4 53.4797 605.3 53.0813 605.188 52.6861C603.804 47.556 602.107 42.4455 600.26 37.5336C600.121 37.1521 599.974 36.7664 599.826 36.3806C597.355 29.9097 594.655 23.817 592.154 18.5657C591.978 18.1937 591.797 17.8233 591.618 17.4588C587.347 8.58777 583.727 2.30242 582.913 0.914383C582.817 0.743383 582.761 0.650609 582.748 0.62851L583.268 0.318802L583.273 0.311295L583.799 0C583.811 0.02213 584.002 0.332925 584.334 0.916565C585.593 3.09313 588.934 9.02149 592.787 16.9891C592.959 17.3493 593.14 17.7197 593.315 18.0916C595.349 22.3511 597.507 27.1423 599.558 32.228C600.076 33.5046 600.571 34.7682 601.043 36.0186C601.196 36.4028 601.343 36.7886 601.483 37.17C603.48 42.4796 605.123 47.5156 606.412 52.278Z" fill="white"/>
<path d="M592.787 16.9894C592.404 17.1484 592.015 17.3089 591.618 17.4591C590.539 17.8688 589.439 18.2229 588.323 18.5201C583.57 19.7922 578.593 19.9817 573.757 19.0747C573.592 19.4548 573.427 19.8349 573.257 20.2225C578.357 21.224 583.618 21.0469 588.639 19.7046C589.829 19.3872 591.003 19.0071 592.154 18.5659C592.545 18.4172 592.934 18.2566 593.315 18.0918C596.465 16.75 599.393 14.9375 602 12.7164C601.658 12.4584 601.324 12.2048 600.998 11.9556C598.524 14.0287 595.757 15.7249 592.787 16.9894Z" fill="white"/>
<path d="M601.043 36.0187C600.641 36.1512 600.235 36.2719 599.826 36.3807C599.704 36.4197 599.573 36.4544 599.449 36.4875C594.297 37.8591 588.89 37.9646 583.689 36.795C578.487 35.6255 573.646 33.2154 569.577 29.7705C569.433 30.183 569.289 30.5955 569.153 31.0123C573.36 34.4741 578.33 36.8839 583.654 38.0421C588.977 39.2002 594.5 39.0733 599.764 37.672C599.93 37.6278 600.096 37.5837 600.26 37.5336C600.673 37.4173 601.079 37.2967 601.483 37.1701C607.72 35.1627 613.247 31.4014 617.403 26.3357C617.12 26.0368 616.838 25.7378 616.549 25.4404C612.52 30.4003 607.131 34.0766 601.043 36.0187Z" fill="white"/>
<path d="M606.412 52.2778C606.007 52.4237 605.598 52.5578 605.188 52.6859C604.749 52.8219 604.308 52.952 603.864 53.0703C596.939 54.9053 589.606 54.4479 582.963 51.7667C576.32 49.0854 570.724 44.3245 567.013 38.1968C566.874 38.7475 566.734 39.2922 566.607 39.8398C570.56 45.8866 576.318 50.5339 583.063 53.1217C589.807 55.7094 597.196 56.1059 604.179 54.2548C604.623 54.1365 605.066 54.0124 605.498 53.872C605.915 53.7482 606.324 53.6141 606.73 53.4741C614.93 50.5897 621.727 44.6971 625.745 36.9896C625.504 36.5845 625.246 36.19 624.987 35.7896C621.175 43.492 614.512 49.4063 606.412 52.2778Z" fill="white"/>
<path d="M306.657 472.7L285.32 472.797L308.645 465.741C313.396 445.949 311.902 423.735 311.902 423.735C311.902 423.735 265.73 424.863 248.803 443.418C231.876 461.973 236.996 478.515 250.603 490.928C264.21 503.342 281.151 506.926 298.078 488.371C301.846 484.241 304.619 478.746 306.657 472.7Z" fill="#F2F2F2"/>
<path d="M281.811 470.654L280.976 471.569C271.223 482.15 261.863 488.81 253.017 491.441C252.889 491.481 252.76 491.513 252.632 491.554L252.457 490.955L252.296 490.376C261.952 487.63 271.466 479.974 279.976 470.747C280.253 470.452 280.534 470.153 280.806 469.846C284.374 465.908 287.756 461.718 290.891 457.509C291.136 457.186 291.381 456.853 291.626 456.521C295.735 450.944 299.401 445.379 302.467 440.436C302.686 440.088 302.899 439.735 303.109 439.387C308.264 430.999 311.595 424.556 312.324 423.121C312.415 422.948 312.463 422.85 312.475 422.828L313.017 423.098L313.025 423.098L313.571 423.372C313.559 423.394 313.401 423.723 313.09 424.318C311.939 426.553 308.757 432.569 304.136 440.117C303.926 440.456 303.712 440.809 303.494 441.157C301.01 445.171 298.145 449.576 294.975 454.051C294.181 455.176 293.385 456.276 292.588 457.349C292.348 457.685 292.103 458.018 291.857 458.341C288.47 462.891 285.121 466.996 281.811 470.654Z" fill="white"/>
<path d="M304.136 440.117C303.795 439.881 303.45 439.641 303.109 439.387C302.181 438.701 301.289 437.967 300.436 437.189C296.796 433.878 293.946 429.792 292.096 425.233C291.686 425.3 291.277 425.366 290.86 425.433C292.774 430.265 295.766 434.596 299.609 438.094C300.52 438.925 301.474 439.706 302.467 440.436C302.804 440.685 303.149 440.925 303.494 441.157C306.326 443.082 309.433 444.566 312.711 445.558C312.743 445.132 312.776 444.714 312.809 444.304C309.728 443.343 306.805 441.932 304.136 440.117Z" fill="white"/>
<path d="M292.588 457.349C292.259 457.082 291.939 456.806 291.626 456.521C291.527 456.439 291.428 456.348 291.332 456.261C287.394 452.668 284.382 448.176 282.555 443.168C280.728 438.16 280.138 432.784 280.838 427.499C280.413 427.6 279.988 427.702 279.564 427.813C278.925 433.223 279.584 438.708 281.487 443.813C283.39 448.917 286.482 453.495 290.506 457.167C290.633 457.283 290.76 457.398 290.891 457.509C291.212 457.794 291.533 458.07 291.857 458.341C296.918 462.504 303.07 465.121 309.578 465.88C309.677 465.48 309.776 465.081 309.87 464.678C303.519 463.968 297.513 461.421 292.588 457.349Z" fill="white"/>
<path d="M281.811 470.654C281.469 470.392 281.136 470.121 280.806 469.845C280.454 469.549 280.106 469.248 279.767 468.939C274.48 464.104 270.901 457.688 269.566 450.649C268.232 443.611 269.212 436.33 272.362 429.896C271.824 430.076 271.29 430.253 270.76 430.442C267.81 437.036 267.012 444.392 268.48 451.466C269.949 458.539 273.609 464.97 278.941 469.844C279.28 470.154 279.624 470.459 279.976 470.747C280.305 471.031 280.639 471.302 280.976 471.568C287.835 476.908 296.466 479.441 305.123 478.656C305.333 478.234 305.526 477.804 305.723 477.37C297.182 478.326 288.605 475.917 281.811 470.654Z" fill="white"/>
<path d="M235.821 489.442L248.081 489.441L253.913 442.153L235.819 442.154L235.821 489.442Z" fill="#FFB6B6"/>
<path d="M232.694 485.439L256.838 485.438H256.839C260.92 485.438 264.833 487.059 267.719 489.945C270.604 492.83 272.225 496.744 272.225 500.824V501.324L232.695 501.326L232.694 485.439Z" fill="#2F2E41"/>
<path d="M138.821 489.442L151.081 489.441L156.913 442.153L138.819 442.154L138.821 489.442Z" fill="#FFB6B6"/>
<path d="M135.694 485.439L159.838 485.438H159.839C163.92 485.438 167.833 487.059 170.719 489.945C173.604 492.83 175.225 496.744 175.225 500.824V501.324L135.695 501.326L135.694 485.439Z" fill="#2F2E41"/>
<path d="M159.613 295.2L151.35 302.805L142.037 394.681L135.768 467.838L154.713 470.393L200.665 345.394L234.288 469.8L256.956 470.393L241.911 308L159.613 295.2Z" fill="#2F2E41"/>
<path d="M199.544 159.346C212.543 159.346 223.08 148.808 223.08 135.81C223.08 122.811 212.543 112.273 199.544 112.273C186.545 112.273 176.008 122.811 176.008 135.81C176.008 148.808 186.545 159.346 199.544 159.346Z" fill="#FFB9B9"/>
<path d="M187.499 124.881C187.499 124.881 184.693 130.953 195.917 128.524C195.917 128.524 200.126 130.953 200.126 127.31C200.126 127.31 205.738 133.382 207.141 129.739C208.544 126.095 211.35 130.953 211.35 130.953L214.156 124.881L216.962 128.525H226.783C226.783 128.525 229.589 104.234 195.917 106.663C162.245 109.092 178.81 147.578 178.81 147.578C178.81 147.578 179.081 140.669 181.887 144.313C184.693 147.957 187.499 124.881 187.499 124.881Z" fill="#2F2E41"/>
<path d="M217.477 167.027L184.288 164.95L154.713 172.795L159.196 249.008L151.35 302.805C151.35 302.805 194.395 329.117 243.254 308.409L238.613 296.2C238.613 296.2 238.454 277.515 234.533 273.858C230.613 270.2 230.926 240.042 230.926 240.042L245.496 184.003L217.477 167.027Z" fill="#3F3D56"/>
<path d="M162.613 175.2L154.713 172.795C154.713 172.795 142.409 173.206 136.011 187.203C129.613 201.2 125.613 221.2 125.613 221.2L166.247 222.669L162.613 175.2Z" fill="#3F3D56"/>
<path d="M256.929 308.806L255.613 226.2L238.058 228.834L241.936 307.097C240.34 308.407 239.165 310.158 238.558 312.132C237.951 314.106 237.939 316.214 238.524 318.195C239.108 320.175 240.263 321.94 241.844 323.268C243.425 324.596 245.362 325.429 247.414 325.663C249.465 325.896 251.54 325.521 253.379 324.582C255.219 323.644 256.741 322.185 257.756 320.387C258.771 318.589 259.234 316.531 259.087 314.472C258.939 312.412 258.189 310.442 256.929 308.806Z" fill="#FFB9B9"/>
<path d="M235.613 191.2L245.496 184.003C245.496 184.003 264.484 198.854 264.549 231.527L238.058 237.952L223.08 216.409L235.613 191.2Z" fill="#3F3D56"/>
<path d="M768.569 489.395L780.829 489.394L786.661 442.106L768.567 442.107L768.569 489.395Z" fill="#9E616A"/>
<path d="M765.442 485.392L789.586 485.391H789.587C793.668 485.391 797.581 487.012 800.467 489.897C803.352 492.783 804.973 496.696 804.974 500.777V501.277L765.443 501.278L765.442 485.392Z" fill="#2F2E41"/>
<path d="M696.005 478.969L707.694 482.667L727.517 439.34L710.266 433.883L696.005 478.969Z" fill="#9E616A"/>
<path d="M694.231 474.21L717.25 481.491L717.251 481.492C721.142 482.723 724.384 485.449 726.265 489.07C728.146 492.691 728.511 496.911 727.281 500.802L727.13 501.279L689.44 489.357L694.231 474.21Z" fill="#2F2E41"/>
<path d="M723.609 273.425L716.806 292.613L716.613 396.2L697.32 467.123L721.003 473.732L747.164 406.859L755.556 348.12L766.613 407.2L765.091 477.421H789.94L791.816 369.21C792.343 338.82 787.025 308.612 776.152 280.228L723.609 273.425Z" fill="#2F2E41"/>
<g filter="url(#filter1_d_190_139)">
<path d="M715.507 195.7H755.672L772.454 212.483L777.468 281.854L716.806 291.615L697.32 225.426L707.932 197.295L715.507 195.7Z" fill="url(#paint1_linear_190_139)"/>
</g>
<g filter="url(#filter2_d_190_139)">
<path d="M701.063 226.088L639.223 202.821L637.613 193.203L676.613 160.203L689.594 169.939L666.066 195.7L707.932 197.295L701.063 226.088Z" fill="url(#paint2_linear_190_139)"/>
</g>
<path d="M684.113 173.7C689.636 173.7 694.113 169.223 694.113 163.7C694.113 158.177 689.636 153.7 684.113 153.7C678.59 153.7 674.113 158.177 674.113 163.7C674.113 169.223 678.59 173.7 684.113 173.7Z" fill="#9E616A"/>
<path d="M707.305 176.298L711.824 155.922C713.435 148.686 717.854 142.387 724.108 138.407C730.362 134.427 737.94 133.093 745.177 134.698C752.415 136.303 758.718 140.716 762.704 146.966C766.689 153.217 768.03 160.794 766.432 168.032L761.913 188.408C761.696 189.381 761.103 190.227 760.263 190.762C759.423 191.297 758.405 191.477 757.432 191.263L710.159 180.779C709.187 180.562 708.341 179.969 707.806 179.129C707.271 178.289 707.091 177.271 707.305 176.298Z" fill="#2F2E41"/>
<path d="M732.73 184.789C744.054 184.789 753.234 175.608 753.234 164.284C753.234 152.96 744.054 143.779 732.73 143.779C721.405 143.779 712.225 152.96 712.225 164.284C712.225 175.608 721.405 184.789 732.73 184.789Z" fill="#9E616A"/>
<path d="M705.003 156.12C706.279 150.395 709.774 145.41 714.721 142.259C719.669 139.108 725.664 138.048 731.391 139.311L735.467 140.215C741.192 141.491 746.176 144.986 749.328 149.933C752.479 154.88 753.539 160.876 752.275 166.603L752.185 167.011L743.573 165.101L742.459 156.224L740.048 164.319L735.597 163.332L735.035 158.853L733.818 162.938L704.913 156.527L705.003 156.12Z" fill="#2F2E41"/>
<path d="M725.707 186.631C725.424 185.994 725.327 185.29 725.426 184.6C725.526 183.91 725.819 183.262 726.27 182.731C732.411 175.475 741.823 161.638 735.873 150.498L735.445 149.697L758.745 154.864L750.988 189.846L728.993 188.887C728.77 188.877 728.549 188.848 728.331 188.8C727.754 188.672 727.214 188.408 726.758 188.031C726.302 187.654 725.942 187.175 725.707 186.631Z" fill="#2F2E41"/>
<path d="M982.485 502.497H1.19068C0.87549 502.496 0.573519 502.37 0.350967 502.147C0.128416 501.924 0.00344849 501.622 0.00344849 501.306C0.00344849 500.991 0.128416 500.689 0.350967 500.466C0.573519 500.243 0.87549 500.117 1.19068 500.116H982.485C982.8 500.116 983.103 500.241 983.327 500.464C983.55 500.688 983.675 500.991 983.675 501.306C983.675 501.622 983.55 501.925 983.327 502.148C983.103 502.372 982.8 502.497 982.485 502.497Z" fill="#CACACA"/>
<path d="M495.959 207.721H178.644C176.235 207.721 173.85 208.195 171.625 209.117C169.399 210.039 167.377 211.39 165.674 213.093C163.971 214.796 162.62 216.818 161.698 219.044C160.776 221.269 160.302 223.654 160.302 226.063V302.378C160.302 304.787 160.776 307.172 161.698 309.398C162.62 311.623 163.971 313.645 165.674 315.348C167.377 317.052 169.399 318.403 171.625 319.324C173.85 320.246 176.235 320.721 178.644 320.721H183.302V334.508C183.302 335.345 183.55 336.163 184.015 336.858C184.479 337.554 185.14 338.096 185.913 338.416C186.686 338.737 187.536 338.82 188.357 338.657C189.178 338.494 189.931 338.091 190.523 337.499L207.302 320.721H495.959C498.368 320.721 500.753 320.246 502.979 319.324C505.204 318.403 507.226 317.052 508.929 315.348C510.633 313.645 511.984 311.623 512.905 309.398C513.827 307.172 514.302 304.787 514.302 302.378V226.063C514.302 223.654 513.827 221.269 512.905 219.044C511.984 216.818 510.632 214.796 508.929 213.093C507.226 211.39 505.204 210.039 502.978 209.117C500.753 208.195 498.368 207.721 495.959 207.721Z" fill="#E6E6E6"/>
<path d="M419.644 311.22H178.644C176.3 311.218 174.052 310.285 172.394 308.627C170.737 306.97 169.804 304.722 169.802 302.377V226.063C169.804 223.719 170.737 221.471 172.394 219.814C174.052 218.156 176.3 217.223 178.644 217.221H495.959C498.303 217.223 500.551 218.156 502.209 219.814C503.866 221.471 504.799 223.719 504.802 226.063C504.776 248.641 495.796 270.286 479.831 286.25C463.867 302.215 442.222 311.195 419.644 311.22Z" fill="white"/>
<g filter="url(#filter3_d_190_139)">
<path d="M404.635 233.721H270.635C267.321 233.721 264.635 236.407 264.635 239.721V239.721C264.635 243.034 267.321 245.721 270.635 245.721H404.635C407.949 245.721 410.635 243.034 410.635 239.721C410.635 236.407 407.949 233.721 404.635 233.721Z" fill="url(#paint3_linear_190_139)"/>
</g>
<path d="M433.135 257.721H242.135C238.821 257.721 236.135 260.407 236.135 263.721V263.721C236.135 267.034 238.821 269.721 242.135 269.721H433.135C436.449 269.721 439.135 267.034 439.135 263.721C439.135 260.407 436.449 257.721 433.135 257.721Z" fill="#E6E6E6"/>
<path d="M433.135 281.721H242.135C238.821 281.721 236.135 284.407 236.135 287.721V287.721C236.135 291.034 238.821 293.721 242.135 293.721H433.135C436.449 293.721 439.135 291.034 439.135 287.721C439.135 284.407 436.449 281.721 433.135 281.721Z" fill="#E6E6E6"/>
<path d="M948.037 260.857H718.566C716.824 260.857 715.099 261.2 713.49 261.867C711.881 262.533 710.419 263.51 709.187 264.742C707.955 265.974 706.978 267.436 706.311 269.045C705.645 270.655 705.302 272.38 705.302 274.122V329.31C705.302 331.052 705.645 332.777 706.311 334.386C706.978 335.995 707.955 337.458 709.187 338.689C710.418 339.921 711.881 340.898 713.49 341.565C715.099 342.231 716.824 342.575 718.566 342.574H721.934V352.545C721.934 353.15 722.114 353.742 722.45 354.245C722.786 354.748 723.264 355.14 723.823 355.371C724.382 355.603 724.997 355.663 725.59 355.545C726.184 355.427 726.729 355.136 727.157 354.708L739.29 342.574H948.037C949.779 342.575 951.504 342.231 953.113 341.565C954.722 340.898 956.185 339.921 957.417 338.689C958.648 337.458 959.625 335.995 960.292 334.386C960.959 332.777 961.302 331.052 961.302 329.31V274.122C961.302 272.38 960.959 270.655 960.292 269.045C959.625 267.436 958.648 265.974 957.416 264.742C956.185 263.51 954.722 262.533 953.113 261.867C951.504 261.2 949.779 260.857 948.037 260.857Z" fill="#E6E6E6"/>
<path d="M948.037 335.843H718.566C716.834 335.841 715.173 335.152 713.949 333.928C712.724 332.703 712.035 331.042 712.033 329.31V274.122C712.035 272.389 712.724 270.729 713.949 269.504C715.173 268.279 716.834 267.59 718.566 267.588H892.849C909.213 267.607 924.901 274.116 936.472 285.687C948.043 297.258 954.552 312.946 954.57 329.31C954.568 331.042 953.879 332.703 952.654 333.928C951.43 335.152 949.769 335.841 948.037 335.843Z" fill="white"/>
<g filter="url(#filter4_d_190_139)">
<path d="M881.995 279.659H785.091C782.694 279.659 780.752 281.602 780.752 283.998C780.752 286.395 782.694 288.337 785.091 288.337H881.995C884.391 288.337 886.334 286.395 886.334 283.998C886.334 281.602 884.391 279.659 881.995 279.659Z" fill="url(#paint4_linear_190_139)"/>
</g>
<path d="M902.605 297.015H764.481C762.084 297.015 760.142 298.958 760.142 301.354C760.142 303.75 762.084 305.693 764.481 305.693H902.605C905.001 305.693 906.944 303.75 906.944 301.354C906.944 298.958 905.001 297.015 902.605 297.015Z" fill="#E6E6E6"/>
<path d="M902.605 314.371H764.481C762.084 314.371 760.142 316.314 760.142 318.71C760.142 321.106 762.084 323.049 764.481 323.049H902.605C905.001 323.049 906.944 321.106 906.944 318.71C906.944 316.314 905.001 314.371 902.605 314.371Z" fill="#E6E6E6"/>
<path d="M458.566 66.8569H688.037C689.779 66.8569 691.504 67.2 693.113 67.8666C694.722 68.5332 696.185 69.5103 697.416 70.7421C698.648 71.9738 699.625 73.4361 700.292 75.0454C700.959 76.6548 701.302 78.3796 701.302 80.1216V135.31C701.302 137.052 700.959 138.777 700.292 140.386C699.625 141.995 698.648 143.458 697.416 144.689C696.185 145.921 694.722 146.898 693.113 147.565C691.504 148.231 689.779 148.575 688.037 148.574H684.669V158.545C684.669 159.15 684.489 159.742 684.153 160.245C683.817 160.748 683.339 161.14 682.78 161.371C682.221 161.603 681.606 161.663 681.013 161.545C680.42 161.427 679.874 161.136 679.447 160.708L667.313 148.574H458.566C456.824 148.575 455.099 148.231 453.49 147.565C451.881 146.898 450.418 145.921 449.187 144.689C447.955 143.458 446.978 141.995 446.311 140.386C445.645 138.777 445.302 137.052 445.302 135.31V80.1216C445.302 78.3796 445.645 76.6548 446.311 75.0454C446.978 73.4361 447.955 71.9738 449.187 70.7421C450.418 69.5103 451.881 68.5332 453.49 67.8666C455.099 67.2 456.824 66.8569 458.566 66.8569Z" fill="#E6E6E6"/>
<path d="M688.037 141.843H513.755C497.391 141.824 481.703 135.316 470.132 123.745C458.561 112.174 452.052 96.4858 452.033 80.1221C452.035 78.3899 452.724 76.7292 453.949 75.5043C455.173 74.2795 456.834 73.5904 458.566 73.5884H688.037C689.769 73.5903 691.43 74.2792 692.654 75.504C693.879 76.7288 694.568 78.3895 694.57 80.1216V135.31C694.568 137.042 693.879 138.702 692.654 139.927C691.43 141.152 689.769 141.841 688.037 141.843Z" fill="white"/>
<g filter="url(#filter5_d_190_139)">
<path d="M621.513 94.3374L524.609 94.3374C522.212 94.3374 520.27 92.3948 520.27 89.9984C520.27 87.6021 522.212 85.6594 524.609 85.6594L621.513 85.6594C623.909 85.6594 625.852 87.6021 625.852 89.9984C625.852 92.3948 623.909 94.3374 621.513 94.3374Z" fill="url(#paint5_linear_190_139)"/>
</g>
<path d="M503.998 111.693L642.123 111.693C644.519 111.693 646.462 109.751 646.462 107.354C646.462 104.958 644.519 103.015 642.123 103.015L503.998 103.015C501.602 103.015 499.659 104.958 499.659 107.354C499.659 109.751 501.602 111.693 503.998 111.693Z" fill="#E6E6E6"/>
<path d="M503.998 129.049L642.123 129.049C644.519 129.049 646.462 127.107 646.462 124.71C646.462 122.314 644.519 120.371 642.123 120.371L503.998 120.371C501.602 120.371 499.659 122.314 499.659 124.71C499.659 127.107 501.602 129.049 503.998 129.049Z" fill="#E6E6E6"/>
<path d="M194.113 206.2C194.113 203.415 193.007 200.745 191.038 198.776C189.069 196.806 186.398 195.7 183.613 195.7C180.829 195.7 178.158 196.806 176.189 198.776C174.22 200.745 173.113 203.415 173.113 206.2C173.113 206.303 173.126 206.402 173.128 206.504L154.713 224.919L156.113 221.7L135.113 220.7L132.05 242.872C131.781 244.919 132.155 246.999 133.119 248.824C134.083 250.65 135.59 252.131 137.432 253.063C139.274 253.995 141.36 254.333 143.402 254.029C145.444 253.725 147.341 252.794 148.832 251.366L185.132 216.578C187.626 216.215 189.905 214.967 191.555 213.061C193.204 211.156 194.112 208.72 194.113 206.2Z" fill="#FFB9B9"/>
<path d="M783.113 266.7C788.636 266.7 793.113 262.223 793.113 256.7C793.113 251.177 788.636 246.7 783.113 246.7C777.59 246.7 773.113 251.177 773.113 256.7C773.113 262.223 777.59 266.7 783.113 266.7Z" fill="#9E616A"/>
</g>
<defs>
<filter id="filter0_d_190_139" x="733.613" y="181.12" width="109.532" height="99.0142" filterUnits="userSpaceOnUse" color-interpolation-filters="sRGB">
<feFlood flood-opacity="0" result="BackgroundImageFix"/>
<feColorMatrix in="SourceAlpha" type="matrix" values="0 0 0 0 0 0 0 0 0 0 0 0 0 0 0 0 0 0 127 0" result="hardAlpha"/>
<feOffset dy="5"/>
<feGaussianBlur stdDeviation="10"/>
<feComposite in2="hardAlpha" operator="out"/>
<feColorMatrix type="matrix" values="0 0 0 0 0 0 0 0 0 0 0 0 0 0 0 0 0 0 0.4 0"/>
<feBlend mode="normal" in2="BackgroundImageFix" result="effect1_dropShadow_190_139"/>
<feBlend mode="normal" in="SourceGraphic" in2="effect1_dropShadow_190_139" result="shape"/>
</filter>
<filter id="filter1_d_190_139" x="677.32" y="180.7" width="120.148" height="135.915" filterUnits="userSpaceOnUse" color-interpolation-filters="sRGB">
<feFlood flood-opacity="0" result="BackgroundImageFix"/>
<feColorMatrix in="SourceAlpha" type="matrix" values="0 0 0 0 0 0 0 0 0 0 0 0 0 0 0 0 0 0 127 0" result="hardAlpha"/>
<feOffset dy="5"/>
<feGaussianBlur stdDeviation="10"/>
<feComposite in2="hardAlpha" operator="out"/>
<feColorMatrix type="matrix" values="0 0 0 0 0 0 0 0 0 0 0 0 0 0 0 0 0 0 0.4 0"/>
<feBlend mode="normal" in2="BackgroundImageFix" result="effect1_dropShadow_190_139"/>
<feBlend mode="normal" in="SourceGraphic" in2="effect1_dropShadow_190_139" result="shape"/>
</filter>
<filter id="filter2_d_190_139" x="617.613" y="145.203" width="110.319" height="105.885" filterUnits="userSpaceOnUse" color-interpolation-filters="sRGB">
<feFlood flood-opacity="0" result="BackgroundImageFix"/>
<feColorMatrix in="SourceAlpha" type="matrix" values="0 0 0 0 0 0 0 0 0 0 0 0 0 0 0 0 0 0 127 0" result="hardAlpha"/>
<feOffset dy="5"/>
<feGaussianBlur stdDeviation="10"/>
<feComposite in2="hardAlpha" operator="out"/>
<feColorMatrix type="matrix" values="0 0 0 0 0 0 0 0 0 0 0 0 0 0 0 0 0 0 0.4 0"/>
<feBlend mode="normal" in2="BackgroundImageFix" result="effect1_dropShadow_190_139"/>
<feBlend mode="normal" in="SourceGraphic" in2="effect1_dropShadow_190_139" result="shape"/>
</filter>
<filter id="filter3_d_190_139" x="244.635" y="218.721" width="186" height="52" filterUnits="userSpaceOnUse" color-interpolation-filters="sRGB">
<feFlood flood-opacity="0" result="BackgroundImageFix"/>
<feColorMatrix in="SourceAlpha" type="matrix" values="0 0 0 0 0 0 0 0 0 0 0 0 0 0 0 0 0 0 127 0" result="hardAlpha"/>
<feOffset dy="5"/>
<feGaussianBlur stdDeviation="10"/>
<feComposite in2="hardAlpha" operator="out"/>
<feColorMatrix type="matrix" values="0 0 0 0 0 0 0 0 0 0 0 0 0 0 0 0 0 0 0.4 0"/>
<feBlend mode="normal" in2="BackgroundImageFix" result="effect1_dropShadow_190_139"/>
<feBlend mode="normal" in="SourceGraphic" in2="effect1_dropShadow_190_139" result="shape"/>
</filter>
<filter id="filter4_d_190_139" x="760.752" y="264.659" width="145.582" height="48.6777" filterUnits="userSpaceOnUse" color-interpolation-filters="sRGB">
<feFlood flood-opacity="0" result="BackgroundImageFix"/>
<feColorMatrix in="SourceAlpha" type="matrix" values="0 0 0 0 0 0 0 0 0 0 0 0 0 0 0 0 0 0 127 0" result="hardAlpha"/>
<feOffset dy="5"/>
<feGaussianBlur stdDeviation="10"/>
<feComposite in2="hardAlpha" operator="out"/>
<feColorMatrix type="matrix" values="0 0 0 0 0 0 0 0 0 0 0 0 0 0 0 0 0 0 0.4 0"/>
<feBlend mode="normal" in2="BackgroundImageFix" result="effect1_dropShadow_190_139"/>
<feBlend mode="normal" in="SourceGraphic" in2="effect1_dropShadow_190_139" result="shape"/>
</filter>
<filter id="filter5_d_190_139" x="500.27" y="70.6592" width="145.582" height="48.6782" filterUnits="userSpaceOnUse" color-interpolation-filters="sRGB">
<feFlood flood-opacity="0" result="BackgroundImageFix"/>
<feColorMatrix in="SourceAlpha" type="matrix" values="0 0 0 0 0 0 0 0 0 0 0 0 0 0 0 0 0 0 127 0" result="hardAlpha"/>
<feOffset dy="5"/>
<feGaussianBlur stdDeviation="10"/>
<feComposite in2="hardAlpha" operator="out"/>
<feColorMatrix type="matrix" values="0 0 0 0 0 0 0 0 0 0 0 0 0 0 0 0 0 0 0.4 0"/>
<feBlend mode="normal" in2="BackgroundImageFix" result="effect1_dropShadow_190_139"/>
<feBlend mode="normal" in="SourceGraphic" in2="effect1_dropShadow_190_139" result="shape"/>
</filter>
<linearGradient id="paint0_linear_190_139" x1="753.684" y1="225.627" x2="823.367" y2="226.003" gradientUnits="userSpaceOnUse">
<stop stop-color="#130EF8"/>
<stop offset="0.130208" stop-color="#6D12EC"/>
<stop offset="1" stop-color="#DA16DE"/>
</linearGradient>
<linearGradient id="paint1_linear_190_139" x1="697.402" y1="243.658" x2="777.725" y2="243.965" gradientUnits="userSpaceOnUse">
<stop stop-color="#130EF8"/>
<stop offset="0.130208" stop-color="#6D12EC"/>
<stop offset="1" stop-color="#DA16DE"/>
</linearGradient>
<linearGradient id="paint2_linear_190_139" x1="637.685" y1="193.146" x2="708.156" y2="193.49" gradientUnits="userSpaceOnUse">
<stop stop-color="#130EF8"/>
<stop offset="0.130208" stop-color="#6D12EC"/>
<stop offset="1" stop-color="#DA16DE"/>
</linearGradient>
<linearGradient id="paint3_linear_190_139" x1="264.784" y1="239.721" x2="410.652" y2="247.845" gradientUnits="userSpaceOnUse">
<stop stop-color="#130EF8"/>
<stop offset="0.130208" stop-color="#6D12EC"/>
<stop offset="1" stop-color="#DA16DE"/>
</linearGradient>
<linearGradient id="paint4_linear_190_139" x1="780.86" y1="283.998" x2="886.346" y2="289.873" gradientUnits="userSpaceOnUse">
<stop stop-color="#130EF8"/>
<stop offset="0.130208" stop-color="#6D12EC"/>
<stop offset="1" stop-color="#DA16DE"/>
</linearGradient>
<linearGradient id="paint5_linear_190_139" x1="520.378" y1="89.9984" x2="625.864" y2="84.1234" gradientUnits="userSpaceOnUse">
<stop stop-color="#130EF8"/>
<stop offset="0.130208" stop-color="#6D12EC"/>
<stop offset="1" stop-color="#DA16DE"/>
</linearGradient>
<clipPath id="clip0_190_139">
<rect width="983.675" height="502.497" fill="white"/>
</clipPath>
</defs>
</svg>
