<svg width="761" height="643" viewBox="0 0 761 643" fill="none" xmlns="http://www.w3.org/2000/svg">
<g clip-path="url(#clip0_651_355)">
<path d="M619.775 310.667C619.775 319.689 619.395 328.62 618.637 337.459C618.039 344.359 617.224 351.197 616.191 357.973C615.094 365.147 613.749 372.235 612.156 379.237V379.246C611.115 383.853 609.972 388.424 608.727 392.956C605.113 406.133 600.619 419.053 595.274 431.628C594.112 434.363 592.912 437.08 591.675 439.778C586.993 449.996 581.75 459.948 575.971 469.589C559.763 496.661 539.532 521.11 515.971 542.098C513.42 544.365 510.835 546.595 508.215 548.788C452.586 595.258 382.374 620.665 309.888 620.554C138.74 620.554 0.000976562 481.815 0.000976562 310.667C0.000976562 139.519 138.74 0.780169 309.888 0.780169C379.878 0.669811 447.825 24.3605 502.574 67.9626C505.141 69.9962 507.675 72.0756 510.176 74.2007C522.384 84.5543 533.778 95.8317 544.256 107.933H544.264C593.066 164.189 619.885 236.193 619.775 310.667Z" fill="#F2F2F2"/>
<path d="M91.4792 364.196C61.9589 346.626 39.6781 313.79 42.5707 279.559C69.5595 305.39 104.815 320.842 142.1 323.181C156.482 324.031 172.568 323.479 183.155 333.251C189.743 339.332 192.809 348.486 193.312 357.436C193.815 366.387 192.022 375.29 190.238 384.075L190.852 386.228C156.499 386.357 121 381.765 91.4792 364.196Z" fill="#E6E6E6"/>
<path d="M43.2907 279.522C55.1187 305.38 74.7936 326.854 99.5208 340.893C104.837 343.869 110.488 346.425 116.494 347.61C122.356 348.721 128.41 348.241 134.024 346.221C139.297 344.443 144.485 342.013 150.099 341.548C156.015 341.057 161.493 343.34 165.797 347.338C171.063 352.23 174.257 358.722 177.159 365.18C180.382 372.35 183.617 379.848 189.796 385.004C190.545 385.629 189.532 386.754 188.784 386.13C178.033 377.159 176.278 362.136 167.684 351.571C163.674 346.642 158.154 342.89 151.596 342.989C145.862 343.076 140.51 345.577 135.187 347.423C129.597 349.362 123.997 350.273 118.096 349.42C112.059 348.547 106.296 346.207 100.928 343.381C88.8014 336.88 77.7729 328.514 68.2457 318.588C57.3097 307.319 48.3818 294.263 41.8484 279.984C41.4444 279.1 42.8893 278.644 43.2906 279.522H43.2907Z" fill="white"/>
<path d="M91.2923 336.842C88.3736 340.671 84.1889 343.337 79.4855 344.366C74.7821 345.394 69.8663 344.717 65.616 342.456C64.7576 341.995 65.4329 340.639 66.2925 341.101C70.2465 343.214 74.8256 343.844 79.2034 342.877C83.5813 341.911 87.4694 339.411 90.1661 335.83C90.753 335.052 91.8758 336.069 91.2923 336.842L91.2923 336.842Z" fill="white"/>
<path d="M131.469 347.475C130.241 337.71 125.377 328.767 117.848 322.429C117.102 321.802 118.115 320.677 118.86 321.303C126.683 327.913 131.725 337.23 132.981 347.395C133.1 348.363 131.588 348.439 131.469 347.475V347.475Z" fill="white"/>
<path d="M59.187 306.609C60.625 305.363 61.731 303.779 62.4056 302C63.0803 300.22 63.3024 298.301 63.0522 296.415C62.9209 295.448 64.4337 295.374 64.5641 296.334C64.8309 298.42 64.583 300.539 63.842 302.506C63.1009 304.474 61.8894 306.23 60.3132 307.621C60.1756 307.764 59.9885 307.85 59.79 307.861C59.5914 307.871 59.3962 307.806 59.2441 307.678C59.0957 307.543 59.0064 307.355 58.9957 307.155C58.985 306.955 59.0538 306.759 59.187 306.609V306.609Z" fill="white"/>
<path d="M138.126 213.242C138.225 213.844 138.324 214.445 138.435 215.052C139.809 223.131 141.838 231.085 144.501 238.835C144.697 239.437 144.905 240.045 145.118 240.64C151.732 259.244 161.743 276.458 174.641 291.407C179.779 297.351 185.362 302.895 191.341 307.992C199.599 315.031 209.112 322.006 214.407 331.094C214.97 332.035 215.474 333.011 215.916 334.016L193.43 385.312C193.32 385.403 193.222 385.499 193.112 385.591L192.308 387.68C191.981 387.439 191.647 387.181 191.321 386.94C191.131 386.801 190.946 386.65 190.755 386.511C190.63 386.415 190.505 386.317 190.387 386.238C190.345 386.206 190.304 386.173 190.273 386.146C190.155 386.066 190.053 385.98 189.947 385.905C188.078 384.472 186.215 383.023 184.36 381.559C184.348 381.553 184.348 381.553 184.341 381.537C170.231 370.342 156.932 357.871 145.949 343.778C145.619 343.354 145.276 342.925 144.956 342.478C140.041 336.098 135.655 329.327 131.842 322.232C129.767 318.341 127.89 314.347 126.219 310.266C121.921 299.712 119.31 288.548 118.481 277.183C116.833 254.527 122.448 231.596 137.001 214.535C137.374 214.099 137.741 213.673 138.126 213.242Z" fill="#E6E6E6"/>
<path d="M138.726 213.643C132.602 241.41 135.383 270.401 146.673 296.498C149.126 302.075 152.1 307.518 156.181 312.08C160.193 316.497 165.315 319.758 171.015 321.526C176.295 323.281 181.9 324.464 186.663 327.472C191.682 330.643 194.682 335.763 195.711 341.547C196.97 348.623 195.611 355.73 194.041 362.634C192.298 370.299 190.366 378.233 192.195 386.07C192.417 387.02 190.931 387.308 190.709 386.36C187.526 372.724 195.17 359.673 194.669 346.063C194.435 339.713 192.286 333.394 186.991 329.525C182.36 326.141 176.581 324.916 171.219 323.185C165.588 321.368 160.569 318.724 156.371 314.49C152.076 310.159 148.883 304.82 146.299 299.331C140.53 286.84 136.762 273.52 135.131 259.859C133.184 244.277 133.916 228.477 137.297 213.143C137.506 212.194 138.934 212.7 138.726 213.643Z" fill="white"/>
<path d="M142.544 288.309C137.908 289.609 132.961 289.219 128.587 287.208C124.212 285.197 120.695 281.697 118.663 277.333C118.255 276.448 119.61 275.772 120.019 276.658C121.903 280.726 125.18 283.986 129.257 285.85C133.335 287.714 137.944 288.059 142.254 286.823C143.19 286.556 143.475 288.043 142.544 288.309H142.544Z" fill="white"/>
<path d="M168.22 320.989C173.119 312.453 174.619 302.384 172.424 292.79C172.205 291.84 173.692 291.551 173.91 292.5C176.176 302.488 174.593 312.963 169.476 321.835C168.988 322.68 167.735 321.83 168.22 320.989Z" fill="white"/>
<path d="M135.111 244.84C137.009 244.711 138.846 244.112 140.456 243.098C142.066 242.083 143.399 240.685 144.334 239.028C144.812 238.177 146.064 239.028 145.59 239.874C144.548 241.7 143.074 243.242 141.298 244.367C139.522 245.492 137.497 246.164 135.401 246.326C135.205 246.358 135.004 246.314 134.839 246.203C134.674 246.092 134.557 245.922 134.513 245.728C134.475 245.531 134.517 245.327 134.629 245.161C134.741 244.995 134.914 244.88 135.111 244.84V244.84Z" fill="white"/>
<path d="M214.662 72.6026L252.591 516.606L176.733 522.31V78.2515C185.773 72.2703 198.748 71.3346 214.662 72.6026Z" fill="#CCCCCC"/>
<path d="M401.885 72.6026L363.957 516.606L439.814 522.31V78.2515C430.775 72.2703 417.8 71.3346 401.885 72.6026Z" fill="#CCCCCC"/>
<path d="M428.456 540.661H187.284C183.417 540.656 179.71 539.118 176.975 536.383C174.241 533.649 172.703 529.941 172.698 526.074V84.7677C172.703 80.9005 174.241 77.193 176.975 74.4585C179.71 71.724 183.417 70.1859 187.284 70.1815H428.456C432.323 70.1859 436.031 71.724 438.765 74.4585C441.5 77.193 443.038 80.9005 443.042 84.7677V526.074C443.038 529.941 441.5 533.649 438.765 536.383C436.031 539.118 432.323 540.656 428.456 540.661ZM187.284 75.0234C184.701 75.0263 182.224 76.0538 180.397 77.8806C178.571 79.7074 177.543 82.1842 177.54 84.7677V526.074C177.543 528.657 178.571 531.134 180.397 532.961C182.224 534.788 184.701 535.816 187.284 535.819H428.456C431.039 535.816 433.516 534.788 435.343 532.961C437.17 531.134 438.197 528.657 438.2 526.074V84.7677C438.197 82.1842 437.17 79.7074 435.343 77.8806C433.516 76.0539 431.039 75.0263 428.456 75.0234L187.284 75.0234Z" fill="#CCCCCC"/>
<path d="M440.622 143.618H175.12V148.46H440.622V143.618Z" fill="#CCCCCC"/>
<path d="M440.622 224.318H175.12V229.16H440.622V224.318Z" fill="#CCCCCC"/>
<path d="M261.278 72.6025H256.436V292.913H261.278V72.6025Z" fill="#CCCCCC"/>
<path d="M359.305 72.6025H354.463V292.913H359.305V72.6025Z" fill="#CCCCCC"/>
<path d="M470.884 553.976H152.927C147.148 553.976 141.606 551.681 137.52 547.594C133.434 543.508 131.138 537.966 131.138 532.187C131.138 526.408 133.434 520.866 137.52 516.78C141.606 512.694 147.148 510.398 152.927 510.398H470.884C476.663 510.398 482.205 512.694 486.291 516.78C490.377 520.866 492.673 526.408 492.673 532.187C492.673 537.966 490.377 543.508 486.291 547.594C482.205 551.681 476.663 553.976 470.884 553.976Z" fill="#CCCCCC"/>
<path d="M440.621 281.615H176.733V297.755H440.621V281.615Z" fill="#CCCCCC"/>
<path d="M262.029 332.981L261.694 332.819C243.705 324.129 220.147 324.137 185.309 332.848L184.937 332.941L184.825 332.573C181.14 320.489 176.965 306.803 184.808 300.069C184.918 280.309 202.251 264.264 223.54 264.264C244.826 264.264 262.156 280.301 262.272 300.055C273.939 308.976 268.379 322.158 262.217 332.66L262.029 332.981Z" fill="#2F2E41"/>
<path d="M372.597 290.669C372.274 292.27 371.605 293.781 370.635 295.096C369.665 296.41 368.419 297.496 366.985 298.276C365.55 299.057 363.961 299.514 362.331 299.614C360.701 299.715 359.069 299.456 357.549 298.858L293.976 362.743L288.304 342.907L351.444 283.58C352.619 281.094 354.665 279.125 357.195 278.047C359.724 276.968 362.562 276.855 365.169 277.729C367.776 278.603 369.973 280.403 371.341 282.788C372.71 285.173 373.157 287.977 372.597 290.669L372.597 290.669Z" fill="#FFB6B6"/>
<path d="M215.476 352.172C215.476 352.172 209.708 365.243 223.94 373.304C238.172 381.364 287.913 370.228 295.984 368.673C304.055 367.118 334.199 322.006 334.199 322.006L329.937 299.882L289.958 334.587L215.476 352.172Z" fill="url(#paint0_linear_651_355)"/>
<path d="M204.978 424.453L205.785 439.786C205.785 439.786 203.403 453.368 205.362 456.299C207.307 459.216 260.36 459.584 260.36 459.584C260.36 459.584 263.865 440.687 266.884 424.146L204.978 424.453Z" fill="#FFB6B6"/>
<path d="M357.512 627.188L368.603 624.947L365.429 580.148L349.06 583.454L357.512 627.188Z" fill="#FFB6B6"/>
<path d="M373.4 568.888L383.711 564.252L370.335 521.387L355.116 528.231L373.4 568.888Z" fill="#FFB6B6"/>
<path d="M382.381 544.736L362.966 555.729L315.086 478.788C281.473 501.433 248.604 512.278 215.469 518.065C204.267 520.06 192.845 519.049 190.694 507.647C190.593 507.114 190.513 506.578 190.454 506.039C189.131 493.584 204.623 477.62 206.592 462.382L248.992 459.837L254.221 466.541L303.255 436.394C313.116 430.332 326.086 433.611 332.223 443.718C332.548 444.252 332.848 444.799 333.126 445.359L382.381 544.736Z" fill="#2F2E41"/>
<path d="M370.498 596.494L348.283 598.559L308.003 516.18C268.061 523.049 230.378 525.25 197.785 516.94C186.749 514.165 180.004 502.77 182.718 491.489C182.845 490.962 182.992 490.44 183.158 489.924C187.059 478.022 197.27 469.601 205.315 456.511L264.078 457.404L257.514 480.05L314.599 472.663C326.078 471.178 336.563 479.487 338.016 491.222C338.092 491.842 338.143 492.464 338.166 493.089L370.498 596.494Z" fill="#2F2E41"/>
<path d="M227.923 321.268C241.101 321.268 251.784 310.585 251.784 297.407C251.784 284.229 241.101 273.546 227.923 273.546C214.744 273.546 204.062 284.229 204.062 297.407C204.062 310.585 214.744 321.268 227.923 321.268Z" fill="#FFB6B6"/>
<path d="M213.934 329.882L235.813 332.456C236.735 332.565 237.601 332.958 238.29 333.582C238.978 334.206 239.454 335.029 239.653 335.937L243.132 351.858L264.821 377.4C264.821 377.4 272.61 392.004 269.689 408.554C266.769 425.104 265.485 437.402 265.485 437.402C265.485 437.402 207.304 459.217 205.357 456.296C203.41 453.375 202.778 440.109 202.778 440.109L194.989 353.463C194.989 353.463 203.751 338.859 208.619 338.859C211.761 338.753 211.358 331.683 213.934 329.882Z" fill="url(#paint1_linear_651_355)"/>
<path d="M266.077 442.73C269.145 442.73 271.632 439.745 271.632 436.063C271.632 432.382 269.145 429.397 266.077 429.397C263.009 429.397 260.521 432.382 260.521 436.063C260.521 439.745 263.009 442.73 266.077 442.73Z" fill="#6C63FF"/>
<path d="M352.008 615.653L368.918 607.179L372.105 614.614L393.487 618.936C394.543 619.149 395.504 619.695 396.228 620.493C396.952 621.29 397.402 622.299 397.513 623.37C397.624 624.442 397.389 625.521 396.842 626.45C396.296 627.379 395.468 628.109 394.477 628.533L373.817 637.389L367.104 631.561L368.866 639.511L361.076 642.85L352.008 615.653Z" fill="#2F2E41"/>
<path d="M368.56 565.321L385.318 556.551L388.635 563.929L410.09 567.874C411.15 568.069 412.12 568.597 412.858 569.382C413.596 570.167 414.064 571.167 414.193 572.237C414.323 573.307 414.107 574.39 413.577 575.328C413.047 576.266 412.232 577.011 411.249 577.452L390.748 586.67L383.933 580.961L385.835 588.879L378.105 592.355L368.56 565.321Z" fill="#2F2E41"/>
<path d="M214.29 289.923C207.986 289.933 201.834 287.992 196.677 284.366L196.505 284.246V284.036C196.512 277.938 198.937 272.092 203.249 267.78C207.561 263.469 213.407 261.043 219.504 261.036H229.188C235.286 261.043 241.132 263.469 245.444 267.78C249.755 272.092 252.181 277.938 252.188 284.036C252.181 285.431 251.63 286.769 250.652 287.765C249.674 288.76 248.345 289.334 246.95 289.365L214.835 289.918C214.653 289.921 214.471 289.923 214.29 289.923Z" fill="#2F2E41"/>
<path d="M253.801 279.618C256.889 277.836 257.405 272.948 254.954 268.703C252.503 264.457 248.012 262.46 244.925 264.243C241.837 266.026 241.321 270.913 243.772 275.159C246.223 279.404 250.714 281.401 253.801 279.618Z" fill="#2F2E41"/>
<path d="M205.508 274.882C208.975 271.415 209.741 266.561 207.22 264.04C204.699 261.518 199.845 262.285 196.378 265.751C192.911 269.218 192.145 274.072 194.666 276.594C197.187 279.115 202.041 278.348 205.508 274.882Z" fill="#2F2E41"/>
<path d="M416.685 493.048H392.868C392.331 493.047 391.8 493.163 391.312 493.388C390.824 493.614 390.392 493.943 390.045 494.353C389.166 494.192 388.262 494.241 387.406 494.497C386.55 494.752 385.768 495.207 385.122 495.824C384.476 496.441 383.986 497.203 383.691 498.046C383.397 498.889 383.307 499.79 383.428 500.675C383.549 501.56 383.879 502.404 384.389 503.137C384.9 503.869 385.577 504.471 386.365 504.891C387.153 505.312 388.029 505.539 388.922 505.555C389.815 505.572 390.699 505.376 391.502 504.984L393.477 511.403C393.711 512.163 394.183 512.829 394.823 513.302C395.463 513.775 396.238 514.03 397.034 514.03H412.519C413.315 514.03 414.089 513.775 414.73 513.302C415.37 512.829 415.841 512.163 416.075 511.403L420.242 497.864C420.413 497.307 420.451 496.718 420.353 496.144C420.255 495.57 420.024 495.027 419.678 494.558C419.332 494.09 418.881 493.709 418.361 493.447C417.841 493.185 417.267 493.048 416.685 493.048ZM389.04 503.942C387.97 503.942 386.943 503.517 386.187 502.76C385.43 502.004 385.005 500.977 385.005 499.907C385.005 498.837 385.43 497.811 386.187 497.054C386.943 496.297 387.97 495.872 389.04 495.872C389.113 495.872 389.182 495.89 389.255 495.894C389.094 496.544 389.114 497.225 389.311 497.864L391.015 503.404C390.415 503.752 389.734 503.938 389.04 503.942Z" fill="#3F3D56"/>
<path d="M310.334 475.53C308.708 475.68 307.068 475.472 305.531 474.921C303.993 474.369 302.596 473.487 301.436 472.336C300.277 471.186 299.384 469.795 298.82 468.263C298.256 466.73 298.035 465.092 298.172 463.464L218.732 420.894L236.108 409.769L311.056 453.232C313.775 453.645 316.248 455.04 318.007 457.154C319.765 459.268 320.688 461.953 320.599 464.702C320.51 467.45 319.416 470.071 317.524 472.066C315.632 474.062 313.074 475.294 310.334 475.53Z" fill="#FFB6B6"/>
<path d="M206.336 342.661C206.336 342.661 192.16 340.886 188.522 356.832C184.883 372.779 209.823 417.233 213.628 424.519C217.433 431.804 269.297 447.738 269.297 447.738L289.268 437.307L244.552 408.967L206.336 342.661Z" fill="url(#paint2_linear_651_355)"/>
<path d="M306.256 276.773H311.098C313.453 276.773 315.711 277.708 317.375 279.373C319.04 281.037 319.975 283.295 319.975 285.65H297.379C297.379 283.295 298.315 281.037 299.979 279.373C301.644 277.708 303.902 276.773 306.256 276.773Z" fill="#CCCCCC"/>
<path d="M152.718 111.149C179.211 111.149 200.688 89.6725 200.688 63.1797C200.688 36.687 179.211 15.2103 152.718 15.2103C126.226 15.2103 104.749 36.687 104.749 63.1797C104.749 89.6725 126.226 111.149 152.718 111.149Z" fill="#FF6584"/>
<path d="M299.589 60.6797C286.894 47.3623 272.15 35.2133 254.696 28.7933C249.834 26.9974 244.793 25.7306 239.66 25.0147C239.619 25.0091 239.58 25.0174 239.539 25.0141C239.455 24.9926 239.37 24.9759 239.285 24.9643C232.105 24.0497 224.818 24.4896 217.801 26.2613C214.369 27.1225 211.022 28.2887 207.798 29.7461C204.562 31.3244 201.428 33.101 198.411 35.0656C192.027 38.8874 184.997 41.5098 177.669 42.8035C173.991 43.4657 170.266 43.8314 166.529 43.8969C163.287 43.9619 160.229 44.0746 157.157 45.2459C153.876 46.4799 150.928 48.4637 148.55 51.0392C146.171 53.6146 144.427 56.7104 143.458 60.0794C143.383 60.3794 143.406 60.6954 143.522 60.9818C143.639 61.2681 143.843 61.5101 144.106 61.6727C144.937 62.2678 145.747 62.943 146.62 63.4733C147.397 63.8288 148.226 64.055 149.076 64.1431C150.464 64.436 151.854 64.7203 153.246 64.9961C158.372 66.0119 163.52 66.911 168.69 67.6936C179.149 69.277 189.666 70.3924 200.239 71.0397C221.419 72.3227 242.672 71.6839 263.737 69.1313C275.576 67.6974 287.334 65.6636 298.967 63.0379C299.202 62.969 299.416 62.8405 299.587 62.6647C299.759 62.4889 299.881 62.2719 299.944 62.0346C300.007 61.7974 300.007 61.548 299.945 61.3106C299.883 61.0732 299.76 60.8559 299.589 60.6797Z" fill="#E6E6E6"/>
<path d="M154.995 92.7525C150.133 90.9566 145.092 89.6898 139.959 88.9739C139.917 88.9683 139.878 88.9766 139.837 88.9733C139.754 88.9518 139.669 88.9352 139.584 88.9235C132.404 88.0089 125.117 88.4489 118.1 90.2206C114.668 91.0817 111.32 92.2479 108.097 93.7053C104.861 95.2836 101.726 97.0602 98.7101 99.0248C92.3255 102.847 85.296 105.469 77.9682 106.763C74.2901 107.425 70.5647 107.791 66.828 107.856C63.5857 107.921 60.528 108.034 57.4561 109.205C54.1747 110.439 51.2271 112.423 48.8485 114.998C46.47 117.574 44.7263 120.67 43.7566 124.039C43.6819 124.339 43.7044 124.655 43.821 124.941C43.9375 125.227 44.142 125.469 44.405 125.632C45.236 126.227 46.0461 126.902 46.9191 127.432C47.6958 127.788 48.5253 128.014 49.3749 128.102C50.763 128.395 52.1529 128.679 53.5445 128.955C58.6711 129.971 63.8191 130.87 68.9884 131.653C79.4482 133.236 89.9645 134.352 100.537 134.999C121.718 136.282 142.971 135.643 164.036 133.09C175.875 131.657 187.633 129.623 199.266 126.997C199.501 126.928 199.715 126.8 199.886 126.624C200.057 126.448 200.18 126.231 200.243 125.994C200.305 125.757 200.306 125.507 200.244 125.27C200.181 125.032 200.059 124.815 199.888 124.639C187.193 111.322 172.449 99.1725 154.995 92.7525Z" fill="#E6E6E6"/>
<path d="M500.922 450.357L464.033 401.896L434.926 418.354L496.606 491.598L500.922 450.357Z" fill="#3F3D56"/>
<path d="M585.897 371.578C586.716 391.887 589.863 412.035 595.274 431.627C594.112 434.363 592.913 437.08 591.675 439.778C586.993 449.996 581.75 459.948 575.971 469.588C559.763 496.66 539.532 521.11 515.971 542.097C513.421 544.365 510.836 546.595 508.216 548.787C493.278 528.192 485.216 505.467 482.029 482.08C481.625 479.111 481.294 476.109 481.044 473.123V473.107C480.432 465.85 480.235 458.565 480.455 451.286C480.463 450.704 480.479 450.115 480.503 449.526C480.786 441.747 481.488 433.951 482.545 426.228V426.22C482.666 425.332 482.787 424.445 482.924 423.557C483.312 420.894 483.747 418.231 484.224 415.584C486.995 400.318 490.862 385.272 495.796 370.562V370.554C495.933 370.126 496.07 369.706 496.224 369.287C496.756 367.689 497.297 366.107 497.854 364.525C497.888 364.401 497.931 364.28 497.983 364.162C498.701 362.096 499.435 360.046 500.186 358.013C500.388 357.448 500.598 356.883 500.815 356.318C501.663 354.051 502.526 351.799 503.406 349.58C503.68 348.87 503.963 348.159 504.245 347.457C504.463 346.917 504.673 346.376 504.899 345.843V345.835C506.182 342.664 507.481 339.554 508.797 336.506C512.485 327.936 516.277 319.874 519.974 312.442L519.982 312.434C535.323 281.663 549.267 261.682 549.267 261.682L601.634 278.629C595.387 289.709 590.553 306.05 587.906 325.329C585.867 340.653 585.195 356.128 585.897 371.57L585.897 371.578Z" fill="#3F3D56"/>
<path d="M498.862 366.648C498.556 365.93 498.209 365.228 497.853 364.526C496.013 360.961 493.643 357.696 490.825 354.842C490.405 354.414 489.969 353.986 489.517 353.583C484.656 349.105 478.745 345.926 472.33 344.337C465.915 342.749 459.203 342.804 452.815 344.496L452.783 344.512L452.541 344.577L452.597 344.851C452.839 346.129 453.19 347.385 453.646 348.603C453.767 348.934 453.904 349.249 454.042 349.564C454.098 349.709 454.171 349.838 454.235 349.983C454.235 349.983 454.227 349.991 454.243 349.991C454.243 350 454.251 350.008 454.251 350.016C454.405 350.314 454.55 350.621 454.711 350.911C454.381 350.597 454.066 350.274 453.759 349.943C453.461 349.636 453.186 349.314 452.912 348.991C451.971 347.894 451.121 346.723 450.37 345.488L450.241 345.271L450.015 345.359C446.969 346.415 444.064 347.837 441.364 349.596L441.073 349.79C439.011 351.144 436.688 352.049 434.253 352.446C431.819 352.844 429.328 352.725 426.943 352.098C423.182 351.128 419.261 350.951 415.428 351.578C411.595 352.204 407.934 353.621 404.678 355.737C402.521 357.144 400.57 358.844 398.883 360.789C398.738 360.959 398.593 361.136 398.448 361.306C398.141 361.677 397.85 362.056 397.568 362.443C394.534 366.498 392.672 371.308 392.185 376.348L392.169 376.534L392.322 376.639C395.053 378.51 398.141 379.796 401.393 380.415C399.35 380.701 397.282 380.752 395.228 380.569H395.22C394.288 380.492 393.361 380.362 392.443 380.181L392.274 380.149H392.266L392.056 380.109L392.088 380.496C392.329 385.427 393.881 390.204 396.583 394.336L396.664 394.449C396.694 394.49 396.721 394.533 396.745 394.578C397.89 396.329 398.842 398.199 399.585 400.155C401.472 405.014 401.888 410.321 400.78 415.415C399.526 420.863 399.943 426.562 401.975 431.77C404.008 436.978 407.562 441.453 412.175 444.612C416.226 447.399 420.948 449.057 425.853 449.414C426.523 449.47 427.201 449.502 427.879 449.502C431.759 449.514 435.599 448.714 439.152 447.154L439.282 447.106L439.314 446.96C439.997 444.755 440.957 442.646 442.171 440.682C441.773 442.23 441.573 443.821 441.573 445.419V445.952L442.033 445.685C442.429 445.451 442.832 445.201 443.196 444.967C445.375 443.544 447.35 441.828 449.062 439.867C449.732 439.092 450.41 438.342 451.12 437.591L451.128 437.583C452.508 436.114 453.969 434.678 455.486 433.306C458.714 430.407 462.168 427.771 465.816 425.422C469.461 423.081 473.272 421.01 477.219 419.224H477.227C477.67 419.014 478.122 418.812 478.566 418.619C480.531 417.763 482.423 416.748 484.223 415.584C484.288 415.544 484.344 415.512 484.401 415.471C492.202 410.363 497.937 402.653 500.586 393.712C503.234 384.771 502.623 375.181 498.862 366.648L498.862 366.648Z" fill="url(#paint3_linear_651_355)"/>
<path opacity="0.15" d="M402.11 426.873C401.889 427.854 401.722 428.846 401.61 429.846C400.107 425.098 399.89 420.037 400.979 415.177C401.147 414.434 401.273 413.682 401.371 412.925C402.862 417.425 403.117 422.242 402.11 426.873Z" fill="black"/>
<path opacity="0.15" d="M402.72 391.867C400.329 392.199 397.905 392.21 395.512 391.901C394.885 390.719 394.344 389.493 393.893 388.234C396.557 390.032 399.561 391.268 402.72 391.867Z" fill="black"/>
<path opacity="0.15" d="M395.321 380.309C394.438 382.566 393.852 384.927 393.576 387.334C392.84 385.042 392.405 382.663 392.283 380.258L392.264 379.87L392.644 379.944C393.53 380.111 394.423 380.232 395.321 380.309Z" fill="black"/>
<path opacity="0.15" d="M404.886 355.498C408.138 353.378 411.797 351.959 415.628 351.332C419.46 350.704 423.379 350.882 427.138 351.854C429.525 352.484 432.017 352.605 434.453 352.208C436.889 351.811 439.214 350.905 441.277 349.549L441.568 349.357C444.266 347.594 447.17 346.168 450.214 345.11L450.447 345.03L450.574 345.24C451.778 347.23 453.236 349.055 454.912 350.667C453.894 348.771 453.181 346.725 452.799 344.607L452.744 344.327L453.02 344.254C459.012 342.668 465.293 342.522 471.353 343.826C477.412 345.13 483.077 347.848 487.885 351.759C492.694 355.669 496.51 360.661 499.022 366.327C501.534 371.993 502.671 378.173 502.341 384.362C501.07 379.316 498.81 374.573 495.692 370.407C492.575 366.241 488.662 362.735 484.179 360.092C479.697 357.449 474.735 355.722 469.58 355.011C464.426 354.3 459.181 354.619 454.151 355.95L453.875 356.023L453.93 356.302C454.312 358.421 455.025 360.466 456.043 362.363C454.367 360.75 452.908 358.926 451.705 356.936L451.577 356.726L451.345 356.806C448.301 357.864 445.397 359.29 442.699 361.053L442.407 361.245C440.345 362.601 438.02 363.507 435.584 363.904C433.148 364.301 430.655 364.18 428.269 363.549C422.022 361.928 415.406 362.524 409.549 365.236C403.692 367.948 398.957 372.607 396.151 378.419C394.902 377.819 393.691 377.142 392.525 376.393L392.367 376.293L392.385 376.107C392.787 371.954 394.119 367.944 396.283 364.376C398.448 360.808 401.388 357.773 404.886 355.498Z" fill="black"/>
<path d="M704.897 149.299L704.13 148.791L703.573 149.517C699.264 154.943 695.835 161.013 693.413 167.505C693.747 160.026 695.055 152.623 697.303 145.482L697.545 144.731L696.851 144.336C687.822 139.223 678.201 135.234 668.203 132.457L667.113 132.167C659.45 130.064 652.317 126.37 646.178 121.325C640.039 116.28 635.032 109.998 631.484 102.889C623.239 86.5717 610.214 73.1571 594.147 64.4351C578.08 55.7131 559.735 52.0984 541.561 54.0734H541.552C541.359 54.0896 541.157 54.1138 540.963 54.138C540.633 54.1703 540.31 54.2106 539.987 54.251C539.325 54.3397 538.68 54.4285 538.034 54.5254C537.485 54.6061 536.928 54.6948 536.38 54.7917C536.089 54.832 535.807 54.8804 535.524 54.9369C535.242 54.9853 534.951 55.0338 534.669 55.0902H534.661C529.242 56.1151 523.931 57.6416 518.795 59.6498H518.787V59.6578L517.488 60.1662C516.148 60.715 514.819 61.296 513.501 61.9093C513.203 62.0465 512.912 62.1918 512.614 62.329C512.533 62.3693 512.444 62.4097 512.363 62.4581C511.516 62.8616 510.677 63.2812 509.846 63.7251C509.725 63.7816 509.603 63.8461 509.482 63.9107L508.708 64.3223C507.005 65.2422 505.332 66.2187 503.688 67.2517C503.551 67.3324 503.422 67.413 503.285 67.5018C503.139 67.5987 502.986 67.6955 502.841 67.7923C502.752 67.8408 502.663 67.9053 502.575 67.9618C502.324 68.1151 502.082 68.2765 501.84 68.446C501.356 68.7607 500.872 69.0835 500.396 69.4144C499.903 69.7453 499.419 70.0923 498.935 70.4393L498.451 70.7863L498.54 71.3835C498.62 71.8757 498.693 72.368 498.782 72.8522C498.862 73.3364 498.943 73.8125 499.032 74.2887C499.169 75.0876 499.322 75.8784 499.476 76.6451C499.581 77.1535 499.677 77.6538 499.79 78.1461C499.895 78.6545 500.008 79.1629 500.129 79.6713C500.363 80.7204 500.614 81.7372 500.88 82.7379C501.009 83.2383 501.146 83.7386 501.291 84.2309C501.372 84.5295 501.453 84.828 501.542 85.1186C501.606 85.3203 501.671 85.5221 501.735 85.7238C501.751 85.7884 501.768 85.861 501.792 85.9336C501.81 86.002 501.831 86.0694 501.856 86.1354C501.945 86.434 502.034 86.7245 502.123 87.0069C502.171 87.1603 502.219 87.3136 502.276 87.4589C502.389 87.8059 502.51 88.1609 502.631 88.4999C502.76 88.8872 502.897 89.2746 503.035 89.6539C503.067 89.7507 503.099 89.8395 503.131 89.9363C503.156 90.009 503.18 90.0816 503.212 90.1542C503.244 90.2349 503.277 90.3237 503.309 90.4044C503.446 90.7675 503.583 91.1388 503.729 91.5019C503.777 91.631 503.825 91.7682 503.882 91.8973C505.19 95.1849 506.797 98.3455 508.684 101.339C506.593 99.5477 504.581 97.6485 502.647 95.6418C499.661 92.539 496.91 89.2185 494.416 85.7077C494.214 85.4333 494.012 85.1508 493.827 84.8684C493.447 84.3277 493.076 83.787 492.713 83.2383C492.326 82.6734 491.954 82.0843 491.591 81.5032C491.349 81.1159 491.107 80.7204 490.873 80.3331C490.639 79.9618 490.421 79.5987 490.211 79.2275L489.582 78.1461H489.574V78.1542L488.686 79.0257C488.331 79.3728 487.976 79.7198 487.629 80.0667C476.783 90.9799 468.926 104.5 464.815 119.327L464.694 119.771L464.573 120.231C464.339 121.054 464.105 121.853 463.855 122.668V122.676C463.613 123.483 463.355 124.29 463.08 125.081C462.83 125.832 462.572 126.574 462.297 127.316C462.209 127.567 462.112 127.817 462.007 128.067C461.837 128.551 461.652 129.027 461.466 129.511C461.377 129.729 461.289 129.955 461.2 130.173C460.982 130.706 460.764 131.238 460.546 131.763C460.514 131.844 460.474 131.932 460.433 132.013C460.369 132.175 460.296 132.336 460.231 132.489C460.062 132.877 459.884 133.272 459.715 133.659C459.594 133.91 459.481 134.168 459.368 134.418C459.32 134.531 459.263 134.644 459.215 134.757C458.916 135.402 458.609 136.04 458.287 136.67C457.923 137.412 457.552 138.154 457.157 138.881C456.81 139.559 456.447 140.22 456.067 140.882C455.414 142.052 454.728 143.214 454.018 144.344C453.743 144.78 453.469 145.216 453.186 145.651C453.122 145.756 453.057 145.861 452.993 145.958C452.759 146.337 452.517 146.701 452.266 147.072C452.097 147.322 451.927 147.572 451.758 147.814C451.476 148.25 451.177 148.67 450.87 149.081C450.79 149.21 450.701 149.331 450.612 149.452C450.16 150.082 449.708 150.695 449.248 151.308C449.232 151.317 449.232 151.325 449.224 151.333C449.208 151.333 449.208 151.341 449.2 151.349C448.998 151.615 448.796 151.881 448.587 152.14C448.312 152.519 448.014 152.89 447.715 153.253C447.231 153.867 446.722 154.488 446.206 155.093C446.19 155.109 446.182 155.126 446.166 155.134C443.492 158.275 440.595 161.22 437.498 163.946C437.442 163.994 437.402 164.043 437.345 164.083C436.909 164.463 436.473 164.842 436.022 165.213C435.836 165.366 435.65 165.52 435.465 165.673C435.158 165.931 434.843 166.189 434.537 166.424C434.5 166.461 434.46 166.493 434.416 166.52C434.141 166.746 433.875 166.956 433.601 167.166C433.27 167.432 432.939 167.682 432.6 167.933C431.002 169.143 429.361 170.286 427.677 171.362C427.427 171.532 427.161 171.701 426.903 171.863C426.749 171.96 426.596 172.056 426.451 172.137C425.837 172.516 425.224 172.888 424.611 173.243C423.997 173.606 423.368 173.953 422.746 174.292C421.415 175.018 420.1 175.777 418.816 176.567C418.171 176.971 417.525 177.374 416.888 177.786C414.354 179.432 411.914 181.194 409.568 183.072C407.223 184.951 404.974 186.946 402.83 189.052C402.564 189.31 402.297 189.576 402.031 189.851C401.498 190.375 400.982 190.908 400.489 191.44C399.699 192.255 398.94 193.095 398.19 193.942C394.232 198.433 390.729 203.304 387.731 208.484C386.226 211.071 384.857 213.735 383.631 216.465C382.703 218.507 381.856 220.597 381.089 222.712C380.581 224.124 380.105 225.549 379.661 226.989C379.443 227.707 379.233 228.433 379.031 229.159C378.346 231.621 377.773 234.106 377.304 236.6C376.925 238.601 376.619 240.605 376.384 242.612C376.263 243.621 376.167 244.63 376.078 245.63C375.87 248.09 375.764 250.552 375.759 253.016C375.745 260.409 376.643 267.776 378.434 274.948C378.83 276.53 379.268 278.104 379.75 279.669C379.992 280.452 380.25 281.227 380.508 282.002C381.162 283.938 381.886 285.856 382.679 287.755C383.155 288.893 383.656 290.023 384.18 291.145C387.514 298.276 391.768 304.939 396.834 310.965C397.665 311.957 398.523 312.934 399.408 313.894C399.416 313.894 399.408 313.902 399.408 313.902C401.604 316.297 403.929 318.571 406.372 320.713H406.381C407.357 321.577 408.35 322.413 409.358 323.223C409.366 323.215 409.366 323.223 409.366 323.223C410.383 324.046 411.408 324.837 412.457 325.604C412.982 325.983 413.514 326.362 414.055 326.741C415.112 327.492 416.191 328.216 417.291 328.912H417.299C418.397 329.622 419.51 330.3 420.64 330.946C422.908 332.245 425.232 333.464 427.621 334.569L428.024 334.755L428.436 334.569C432.266 332.846 436.214 331.398 440.25 330.236C441.138 329.978 442.034 329.743 442.921 329.518C445.165 328.961 447.424 328.493 449.7 328.113C447.483 329.226 445.342 330.485 443.293 331.882C441.703 332.955 440.137 334.125 438.564 335.417C438.039 335.844 437.514 336.288 436.99 336.74L435.683 337.87L437.321 338.411C437.918 338.604 438.515 338.798 439.112 338.976C439.927 339.234 440.734 339.468 441.525 339.686C443.252 340.17 444.99 340.598 446.738 340.969C447.166 341.058 447.586 341.146 448.014 341.235C448.845 341.397 449.684 341.558 450.523 341.703C450.558 341.712 450.593 341.717 450.628 341.719C451.5 341.865 452.379 342.002 453.251 342.123C454.873 342.357 456.495 342.542 458.117 342.68C458.295 342.704 458.472 342.712 458.658 342.72C459.053 342.752 459.441 342.785 459.836 342.809C460.708 342.865 461.587 342.906 462.467 342.938C462.531 342.938 462.588 342.946 462.652 342.946C463.096 342.962 463.54 342.978 463.984 342.986C463.984 342.986 463.984 342.994 463.992 342.986C464.436 342.994 464.88 343.002 465.324 343.002H467.777C468.237 343.002 468.697 343.011 469.165 343.011C469.811 343.011 470.464 343.019 471.11 343.027C471.279 343.027 471.457 343.035 471.634 343.035C472.667 343.051 473.7 343.075 474.733 343.099C474.798 343.099 474.862 343.107 474.927 343.107C475.96 343.14 476.993 343.172 478.026 343.22C478.252 343.228 478.478 343.236 478.712 343.253C479.704 343.293 480.697 343.341 481.69 343.398C481.972 343.414 482.263 343.438 482.553 343.454C483.304 343.495 484.062 343.543 484.813 343.6C485.256 343.624 485.692 343.656 486.136 343.696C487.928 343.834 489.711 343.987 491.503 344.165C492.1 344.213 492.697 344.277 493.294 344.342C494.892 344.512 496.495 344.697 498.104 344.899C498.822 344.98 499.54 345.076 500.259 345.173C500.339 345.181 500.42 345.189 500.501 345.206C501.388 345.327 502.268 345.448 503.156 345.577C503.737 345.657 504.318 345.746 504.899 345.835C505.496 345.924 506.093 346.013 506.69 346.117C507.013 346.166 507.336 346.222 507.667 346.279C508.441 346.4 509.224 346.529 510.007 346.674C510.078 346.681 510.148 346.692 510.217 346.707C511.879 346.997 513.55 347.304 515.212 347.635C516.189 347.82 517.157 348.014 518.125 348.216C518.884 348.369 519.643 348.53 520.401 348.692C520.53 348.716 520.659 348.748 520.789 348.781C520.817 348.789 520.847 348.795 520.877 348.797C522.023 349.047 523.177 349.305 524.323 349.579C528.302 350.499 532.275 351.522 536.243 352.646C537.154 352.896 538.066 353.163 538.978 353.429C539.366 353.542 539.745 353.655 540.124 353.768C540.915 354.002 541.698 354.236 542.489 354.486C543.183 354.696 543.885 354.914 544.579 355.14C545.015 355.277 545.45 355.414 545.886 355.559C546.564 355.769 547.242 355.987 547.912 356.221C548.485 356.399 549.05 356.584 549.614 356.786C550.421 357.052 551.237 357.327 552.044 357.617C552.278 357.698 552.52 357.779 552.754 357.867C553.738 358.206 554.723 358.553 555.707 358.916C556.668 359.263 557.628 359.619 558.58 359.974C559.242 360.224 559.904 360.466 560.557 360.724C561.292 361.007 562.026 361.289 562.752 361.58C563.801 361.991 564.859 362.411 565.908 362.838C566.876 363.226 567.836 363.621 568.805 364.033C568.982 364.105 569.168 364.178 569.346 364.259C570.185 364.606 571.024 364.969 571.855 365.332C572.396 365.558 572.929 365.792 573.461 366.026C575.785 367.043 578.107 368.095 580.426 369.181H580.434C581.886 369.867 583.363 370.521 584.848 371.142C585.195 371.288 585.542 371.433 585.897 371.57C586.486 371.82 587.083 372.054 587.681 372.297C588.068 372.45 588.455 372.603 588.851 372.748C589.424 372.974 590.005 373.192 590.586 373.402C591.199 373.628 591.804 373.854 592.426 374.064C592.644 374.145 592.861 374.217 593.087 374.298C593.806 374.54 594.524 374.782 595.25 375.016C595.323 375.04 595.395 375.064 595.476 375.089C596.235 375.331 596.993 375.573 597.76 375.799C597.821 375.821 597.883 375.84 597.946 375.855C598.769 376.105 599.608 376.348 600.439 376.582C601.666 376.921 602.901 377.243 604.135 377.542C604.361 377.598 604.587 377.655 604.813 377.703C605.475 377.865 606.128 378.018 606.79 378.163C607.492 378.325 608.202 378.47 608.905 378.615C609.615 378.76 610.325 378.906 611.027 379.035C611.406 379.108 611.786 379.18 612.157 379.245L613.149 379.414C613.835 379.535 614.521 379.64 615.215 379.753C615.234 379.752 615.254 379.755 615.272 379.761C616.055 379.882 616.829 379.995 617.612 380.092C618.363 380.197 619.113 380.286 619.864 380.375C620.017 380.391 620.178 380.407 620.34 380.423C620.961 380.496 621.583 380.568 622.204 380.625C622.381 380.641 622.559 380.657 622.736 380.673C623.35 380.73 623.963 380.786 624.576 380.826C624.7 380.843 624.824 380.851 624.948 380.851C625.496 380.899 626.045 380.939 626.594 380.964C626.981 380.996 627.361 381.012 627.748 381.036C627.95 381.044 628.143 381.052 628.345 381.06C628.878 381.093 629.41 381.109 629.951 381.125C630.605 381.149 631.258 381.165 631.904 381.182C632.687 381.198 633.478 381.206 634.26 381.206H634.277C635.043 381.206 635.818 381.198 636.585 381.182H636.875L637.723 381.157C638.158 381.149 638.594 381.133 639.022 381.117C639.845 381.085 640.66 381.044 641.475 380.996C641.798 380.98 642.129 380.956 642.452 380.939C642.597 380.931 642.75 380.915 642.895 380.907C643.404 380.875 643.904 380.843 644.413 380.802C644.937 380.762 645.47 380.713 645.994 380.657C646.672 380.592 647.35 380.52 648.028 380.447C648.561 380.391 649.093 380.326 649.618 380.262C649.688 380.255 649.758 380.245 649.828 380.229C650.336 380.173 650.844 380.108 651.345 380.036C651.942 379.955 652.531 379.866 653.12 379.777C653.185 379.769 653.241 379.761 653.306 379.753C654.322 379.592 655.347 379.43 656.372 379.245C657.446 379.051 658.519 378.841 659.584 378.623C659.98 378.543 660.367 378.454 660.762 378.373C660.98 378.325 661.206 378.284 661.416 378.236C661.747 378.163 662.07 378.091 662.392 378.01C662.449 378.002 662.514 377.986 662.57 377.978C663.022 377.881 663.466 377.768 663.918 377.655C664.822 377.437 665.709 377.211 666.597 376.969C666.992 376.872 667.388 376.767 667.767 376.662C667.88 376.63 667.993 376.598 668.098 376.566C669.736 376.106 671.361 375.619 672.972 375.105C673.682 374.879 674.384 374.645 675.087 374.395C676.596 373.878 678.091 373.335 679.573 372.765C679.969 372.619 680.364 372.458 680.76 372.305C681.341 372.071 681.922 371.837 682.495 371.603C683.011 371.385 683.528 371.167 684.052 370.941C684.31 370.836 684.569 370.723 684.827 370.61C685.602 370.271 686.376 369.924 687.143 369.577C687.66 369.335 688.168 369.101 688.676 368.859C689.483 368.471 690.282 368.076 691.081 367.681C691.283 367.576 691.477 367.471 691.67 367.374C692.179 367.116 692.687 366.849 693.204 366.591C694.019 366.155 694.834 365.72 695.641 365.268C695.915 365.122 696.181 364.969 696.456 364.816C697.344 364.315 698.223 363.807 699.095 363.29C701.023 362.136 702.925 360.931 704.8 359.675C705.268 359.368 705.736 359.046 706.196 358.731C707.068 358.134 707.923 357.52 708.779 356.907C708.867 356.843 708.948 356.778 709.037 356.721C709.465 356.407 709.892 356.092 710.32 355.769C711.208 355.099 712.087 354.422 712.967 353.728C712.983 353.719 713.007 353.695 713.032 353.679C713.427 353.364 713.822 353.05 714.21 352.735C715.412 351.758 716.598 350.766 717.76 349.741C718.333 349.249 718.898 348.74 719.455 348.232C719.875 347.853 720.295 347.473 720.706 347.086C721.537 346.303 722.352 345.528 723.159 344.738C723.563 344.35 723.958 343.947 724.362 343.543C724.757 343.14 725.161 342.736 725.556 342.325C725.693 342.188 725.83 342.042 725.968 341.897C726.371 341.469 726.775 341.033 727.178 340.606C727.525 340.235 727.864 339.847 728.211 339.46C728.792 338.814 729.381 338.169 729.954 337.515C729.984 337.478 730.017 337.443 730.051 337.41C730.083 337.37 730.116 337.337 730.14 337.305H730.132C741.862 323.741 750.577 307.84 755.702 290.655C760.826 273.47 762.242 255.392 759.857 237.619C757.471 219.845 751.338 202.781 741.863 187.556C732.389 172.33 719.789 159.29 704.897 149.299L704.897 149.299Z" fill="url(#paint4_linear_651_355)"/>
<g opacity="0.15">
<path d="M541.554 54.0674C543.163 59.8458 545.583 65.3668 548.742 70.4655C543.453 65.9218 538.727 60.7608 534.666 55.0928C536.947 54.6613 539.243 54.3195 541.554 54.0674Z" fill="black"/>
<path d="M462.81 143.432C456.837 146.692 451.252 150.617 446.163 155.133C454.756 144.972 461.037 133.062 464.569 120.231C464.612 120.077 464.655 119.922 464.697 119.768L464.817 119.331C469.062 104.017 477.298 90.1053 488.683 79.0186L489.578 78.1465L490.209 79.2243C493.699 85.1588 497.876 90.6618 502.653 95.6197C495.333 116.274 481.09 133.464 462.81 143.432Z" fill="black"/>
<path d="M504.877 88.463L504.757 88.8998C504.715 89.0542 504.672 89.2094 504.629 89.3635C504.394 90.2127 504.143 91.0555 503.885 91.8947C501.332 85.2824 499.539 78.4012 498.541 71.3839L498.447 70.7884L498.937 70.4385C505.077 66.0259 511.747 62.4003 518.79 59.6462C512.466 68.3428 507.754 78.1029 504.877 88.463Z" fill="black"/>
<path d="M422.749 174.299C428.035 171.406 432.982 167.933 437.5 163.945C428.476 174.451 422.008 186.904 418.602 200.328C415.196 213.752 414.945 227.782 417.868 241.319C420.791 254.856 426.809 267.533 435.451 278.355C444.092 289.178 455.123 297.852 467.677 303.698L468.085 303.887L468.493 303.703C475.274 300.639 482.424 298.468 489.763 297.244C485.182 299.577 480.912 302.477 477.052 305.873L475.747 307.002L477.385 307.543C478.798 308.01 480.213 308.441 481.587 308.822C489.663 311.072 498.013 312.189 506.397 312.142C544.488 311.898 582.875 320.704 620.491 338.316C626.942 341.331 633.633 343.804 640.495 345.709C670.398 354.035 702.322 351.04 730.155 337.298C714.463 355.446 693.945 368.77 670.983 375.722C648.021 382.675 623.558 382.971 600.435 376.577C593.573 374.672 586.882 372.199 580.431 369.183C542.815 351.572 504.428 342.765 466.336 343.009C457.953 343.056 449.603 341.939 441.527 339.69C440.152 339.308 438.738 338.878 437.324 338.411L435.686 337.87L436.992 336.741C440.851 333.344 445.122 330.445 449.703 328.111C442.363 329.336 435.213 331.507 428.432 334.571L428.025 334.754L427.617 334.566C412.54 327.549 399.71 316.48 390.558 302.595C381.407 288.71 376.293 272.555 375.788 255.933C375.283 239.311 379.407 222.875 387.699 208.461C395.992 194.046 408.126 182.219 422.749 174.299L422.749 174.299Z" fill="black"/>
</g>
</g>
<defs>
<linearGradient id="paint0_linear_651_355" x1="214.442" y1="338.043" x2="334.579" y2="338.907" gradientUnits="userSpaceOnUse">
<stop stop-color="#130EF8" stop-opacity="0.68"/>
<stop offset="0.0989583" stop-color="#6D12EC"/>
<stop offset="1" stop-color="#DA16DE"/>
</linearGradient>
<linearGradient id="paint1_linear_651_355" x1="195.066" y1="393.224" x2="270.586" y2="393.429" gradientUnits="userSpaceOnUse">
<stop stop-color="#130EF8" stop-opacity="0.68"/>
<stop offset="0.0989583" stop-color="#6D12EC"/>
<stop offset="1" stop-color="#DA16DE"/>
</linearGradient>
<linearGradient id="paint2_linear_651_355" x1="188.264" y1="395.17" x2="289.591" y2="395.616" gradientUnits="userSpaceOnUse">
<stop stop-color="#130EF8" stop-opacity="0.68"/>
<stop offset="0.0989583" stop-color="#6D12EC"/>
<stop offset="1" stop-color="#DA16DE"/>
</linearGradient>
<linearGradient id="paint3_linear_651_355" x1="392.169" y1="396.344" x2="502.559" y2="396.867" gradientUnits="userSpaceOnUse">
<stop stop-color="#130EF8" stop-opacity="0.68"/>
<stop offset="0.0989583" stop-color="#6D12EC"/>
<stop offset="1" stop-color="#DA16DE"/>
</linearGradient>
<linearGradient id="paint4_linear_651_355" x1="376.153" y1="217.377" x2="762.21" y2="219.454" gradientUnits="userSpaceOnUse">
<stop stop-color="#130EF8" stop-opacity="0.68"/>
<stop offset="0.0989583" stop-color="#6D12EC"/>
<stop offset="1" stop-color="#DA16DE"/>
</linearGradient>
<clipPath id="clip0_651_355">
<rect width="760.999" height="642.07" fill="white" transform="translate(0.000976562 0.779541)"/>
</clipPath>
</defs>
</svg>
